<?xml version="1.0" encoding="UTF-8"?><svg id="Layer_2" xmlns="http://www.w3.org/2000/svg" viewBox="0 0 248.69 313.57"><defs><style>.cls-1{fill:#8d9374;}.cls-1,.cls-2,.cls-3,.cls-4,.cls-5,.cls-6,.cls-7,.cls-8,.cls-9{stroke-miterlimit:10;}.cls-1,.cls-2,.cls-3,.cls-5,.cls-6,.cls-7,.cls-9{stroke:#000;}.cls-2{fill:none;}.cls-4{fill:#a39511;stroke:#a39511;}.cls-5{fill:#a09a76;}.cls-6{fill:#006837;}.cls-7,.cls-10{fill:#b3b3b3;}.cls-8{fill:#a31a1a;stroke:#a31a1a;}.cls-9{fill:#efcab1;}</style></defs><g id="_מפקד"><path class="cls-1" d="m220.33,197.62l-43.65-13.06-5.57-12.06c-3.4,1.02-6.89,1.88-10.4,2.76-9.4,2.38-19.07,6.44-28.82,4.26-5.94,1.13-12.12,1.15-18.21.18-10.77-1.72-19.87-8.35-27.08-16.29l-7.86,19.6-51.29,14.7c-15.16,1.68-26.95,14.53-26.95,30.13v85.23h247.69v-85.23c0-15.92-2.07-24.11-27.86-30.22Z"/><polygon class="cls-5" points="223.4 221.42 171.14 208.27 178.42 184.63 228.68 199.66 223.4 221.42"/><polygon class="cls-5" points="73.63 209.7 21.33 222.7 15.71 199.59 69.08 184.56 73.63 209.7"/><path class="cls-9" d="m124.34,236.07l54.07-51.44-15.27-29.38-22.04,17.25c-3.99,3.12-8.78,5.07-13.82,5.63l-1.04.11c-6.52.72-11.92-1.75-16.76-6.18l-19.69-16.67-11.07,27.61,45.6,53.06,52.34-51.51"/><rect class="cls-3" x="166.5" y="259.07" width="92" height="10" rx="5" ry="5" transform="translate(-51.57 476.57) rotate(-90)"/><polyline class="cls-6" points="217 220.57 209 225.37 217 229.76 209 235.52 217 239.56 209 243.4 217 248 209 251.63 217 254.44 209 259.38 217 262.57"/><polyline class="cls-6" points="217 305.97 209 302.78 217 297.84 209 295.03 217 291.4 209 286.8 217 282.96 209 278.92 217 273.16 209 268.77 217 263.97"/><path class="cls-9" d="m181.91,105.77c0,55.23-34.98,88.31-53.9,88.31-16.85,0-60.1-40.08-60.1-95.31s18.21-66.36,59.84-66.36,54.16,18.13,54.16,73.36Z"/><path class="cls-7" d="m161.43,20.03c-11.58-4.22-14.16-4.43-23.48-8.33l-10.21-3.83C92.81.15,94.18-.77,76.4,1.76h0c-8.09.37-14.7,7.26-15.83,16.48l-3.28,26.77,43.45,12.74,39.78,11.66c2.47,1.01,5,1.99,7.57,2.92,39.01,14.23,73.62,14.06,77.3-.38,3.68-14.44-24.96-37.68-63.96-51.91Z"/><path class="cls-8" d="m72.56,35.59l-6.96,4.97,35.81,11.44-.23-5.57-8.73-3.88s10.34-3.05,4.48-13.93c-3.92-7.28-13.21-8.43-16.91-1.49-3.98,7.46-1.68,10.29-1.68,10.29l-5.78-1.84Z"/><polygon class="cls-4" points="81.45 41.86 83.86 37.72 79.49 39.68 83.07 36.49 78.3 37.01 82.69 35.08 78 34.1 82.77 33.62 78.61 31.24 83.29 32.25 80.07 28.7 84.21 31.11 82.25 26.74 85.44 30.32 84.92 25.55 86.85 29.94 87.83 25.25 88.31 30.01 90.69 25.86 89.68 30.54 93.23 27.32 90.82 31.46 95.19 29.49 91.61 32.69 96.38 32.17 91.99 34.1 96.68 35.08 91.92 35.56 96.07 37.94 91.39 36.93 94.61 40.48 90.47 38.07 92.44 42.43 89.24 38.86 89.76 43.63 87.83 39.24 86.85 43.93 86.37 39.16 83.99 43.32 85 38.64 81.45 41.86"/><path class="cls-10" d="m74.99,18.79c19.59,15.37,39.99,29.69,61.14,42.83,5.99,3.72,12.04,7.35,18.15,10.89,1.67.97,3.19-1.62,1.51-2.59-21.36-12.38-42.06-25.91-61.95-40.54-5.64-4.15-11.22-8.39-16.73-12.71-1.5-1.18-3.64.93-2.12,2.12h0Z"/><path class="cls-10" d="m80.85,21.79c3.9,2.05,7.59,4.4,11.13,7.02s6.9,5.29,10.76,7.31c.92.48,2.38-.09,2.26-1.3-.19-1.91-1.44-3.21-2.63-4.62-1.34-1.58-2.74-3.12-4.19-4.59-1.3-1.32-2.69-2.6-4.29-3.56s-3.46-1.59-5.24-2.21c-.96-.33-1.92-.66-2.89-1-.86-.3-1.9-.86-2.83-.74-2.03.27-1.61,2.65-.92,3.92s1.9,2.29,3.08,3.19c1.38,1.05,2.62,2.11,3.81,3.38,2.94,3.11,6.83,4.77,10.23,7.25,1.25.91,2.79-.84,2.05-2.05-3.73-6.11-9.05-11.16-15.38-14.52-1.09-.58-2.64.39-2.2,1.69.65,1.96,2.24,3.18,3.8,4.42,1.69,1.34,3.45,2.59,5.27,3.74,1.64,1.04,3.14-1.56,1.51-2.59-1.49-.95-2.95-1.95-4.35-3.03-1.12-.87-2.87-1.93-3.34-3.34l-2.2,1.69c5.89,3.13,10.83,7.75,14.3,13.44l2.05-2.05c-3.14-2.28-6.78-3.79-9.49-6.64-1.28-1.34-2.58-2.51-4.07-3.62-.62-.47-1.24-.95-1.78-1.52-.25-.26-.47-.53-.65-.84-.08-.14-.16-.28-.22-.43-.13-.61-.32-.39-.56.67l-1.16.15c1.01.15,2.03.64,3,.98,1.02.35,2.04.7,3.05,1.06,1.89.67,3.69,1.46,5.24,2.76s2.94,2.81,4.3,4.31c.75.82,1.48,1.66,2.2,2.52.48.57,1.4,1.38,1.48,2.18l2.26-1.3c-3.86-2.02-7.27-4.73-10.76-7.31s-7.23-4.98-11.13-7.02c-1.71-.9-3.23,1.69-1.51,2.59h0Z"/><path class="cls-2" d="m63.82,9.29l32,26c14.49,9.71,28.39,14.45,42.27,19.25l23.33,8.05c9.75,3.36,22.22,7.18,32.39,5.41l31.29-2"/></g></svg>