<?xml version="1.0" encoding="UTF-8"?><svg id="Layer_2" xmlns="http://www.w3.org/2000/svg" viewBox="0 0 534.87 334.63"><defs><style>.cls-1{fill:#8d9374;}.cls-1,.cls-2,.cls-3,.cls-4,.cls-5,.cls-6,.cls-7,.cls-8,.cls-9,.cls-10,.cls-11,.cls-12,.cls-13,.cls-14{stroke-miterlimit:10;}.cls-1,.cls-3,.cls-4,.cls-5,.cls-6,.cls-7,.cls-8,.cls-9,.cls-10,.cls-11,.cls-12,.cls-13,.cls-14{stroke:#000;}.cls-2{fill:none;stroke:#fff;}.cls-3{fill:#151610;}.cls-5{fill:gray;}.cls-6{fill:#ddd;}.cls-7{fill:#101416;}.cls-8{fill:#616353;}.cls-9{fill:#353535;}.cls-10{fill:#798482;}.cls-11{fill:#333;}.cls-12{fill:#747762;}.cls-13{fill:#0a0a0a;}.cls-14{fill:#d8d8d8;}</style></defs><g id="_רכב_צבאי"><path class="cls-7" d="m82.89,304.08l.09-.1c2.33-2.49-.47-6.38-3.57-4.95l-.18.08c-3.41,1.57-6.16-3.14-3.11-5.34l1.08-.78c2.52-1.82.62-5.84-2.41-5.1l-1.3.32c-3.65.89-5.44-4.27-2.03-5.84l1.14-.52c2.83-1.3,1.71-5.59-1.41-5.44l-3.76.18c-3.44.16-4.24-4.81-.91-5.62l3.64-.88c3.03-.73,2.74-5.14-.37-5.59l-3.74-.54c-3.42-.5-3.27-5.51.17-5.67l3.76-.17c3.13-.14,3.67-4.51.7-5.54l-3.58-1.24c-3.28-1.13-2.19-6.02,1.24-5.51l3.73.55c3.11.46,4.47-3.71,1.73-5.29l-3.3-1.89c-3.02-1.73-1.02-6.3,2.26-5.16l3.58,1.24c2.98,1.04,5.11-2.78,2.71-4.84l-1-.86c-2.82-2.41.29-6.82,3.51-4.97l.03.02c2.92,1.68,6-1.92,3.9-4.55l-.08-.1c-2.32-2.89,1.55-6.64,4.36-4.22l.07.06c2.56,2.2,6.26-.77,4.67-3.74l-.04-.07c-1.74-3.27,2.76-6.23,5.07-3.34l.84,1.05c1.98,2.47,5.86.46,4.92-2.56l-.37-1.19c-1.11-3.55,3.88-5.63,5.62-2.34l.62,1.17c1.48,2.8,5.69,1.56,5.33-1.57l-.43-3.76c-.39-3.44,4.51-4.38,5.54-1.06l1.12,3.62c.93,3.02,5.31,2.6,5.55-.52l.29-3.76c.26-3.44,5.27-3.43,5.66.01l.42,3.76c.35,3.13,4.74,3.56,5.57.54l.99-3.62c.91-3.32,5.85-2.36,5.58,1.08l-.29,3.76c-.24,3.13,4,4.38,5.39,1.59l1.66-3.35c1.52-3.07,6.21-1.2,5.29,2.12l-1,3.62c-.83,3.01,3.12,5.04,5.01,2.58l.81-1.06c2.28-2.98,6.91-.09,5.24,3.27l-.12.23c-1.52,3.05,2.28,5.96,4.83,3.71l.1-.09c2.82-2.49,6.81,1.24,4.52,4.22l-.1.12c-2.08,2.71,1.09,6.3,4.03,4.58l.13-.08c3.25-1.9,6.45,2.53,3.62,5.02l-.07.06c-2.57,2.26-.15,6.4,3.08,5.27l.2-.07c3.55-1.23,5.82,3.72,2.58,5.61l-1.15.67c-2.69,1.56-1.17,5.74,1.92,5.29l3.72-.53c3.4-.49,4.67,4.4,1.43,5.52l-3.54,1.22c-2.94,1.02-2.24,5.39.89,5.54l3.76.18c3.45.17,3.78,5.19.37,5.67l-3.72.53c-3.09.44-3.22,4.85-.17,5.59l3.67.89c3.37.82,2.74,5.79-.7,5.62l-3.76-.19c-3.13-.16-4.09,4.13-1.22,5.44l3.45,1.57c3.16,1.44,1.61,6.18-1.76,5.36l-3.67-.9c-3.06-.75-4.81,3.26-2.23,5.09l1.14.8c3.03,2.14.34,6.81-3.03,5.27l-1.19-.55c-2.87-1.31-5.36,2.28-3.16,4.56l.92.94c2.58,2.66-.93,6.76-3.96,4.61l-.04-.03c-2.75-1.95-6.16,1.35-4.3,4.16l.05.07c2.04,3.09-2.17,6.46-4.74,3.8l-.06-.06c-2.34-2.43-6.31.18-5.01,3.3h0c1.43,3.42-3.33,5.96-5.37,2.86l-.72-1.1c-1.74-2.65-5.8-1.01-5.15,2.07l.78,3.71c.72,3.4-4.07,4.8-5.4,1.59l-1.46-3.51c-1.21-2.92-5.52-2.09-5.46,1.05l.07,3.77c.07,3.46-4.91,3.93-5.63.53l-.78-3.71c-.65-3.09-5.05-3.09-5.58-.01l-.64,3.71c-.59,3.4-5.59,2.91-5.64-.55l-.06-3.77c-.05-3.14-4.39-3.98-5.5-1.07l-1.33,3.5c-1.22,3.21-6.05,1.78-5.46-1.61l.65-3.7c.54-3.08-3.58-4.73-5.22-2.09l-.66,1.06c-1.99,3.19-6.88.76-5.53-2.75l.48-1.25c1.11-2.91-2.63-5.31-4.75-3.04l-.91.97c-2.56,2.75-6.89-.57-4.9-3.76l.11-.17c1.81-2.9-1.69-6.17-4.46-4.17l-.11.08c-3.05,2.2-6.66-1.9-4.09-4.64Z"/><path class="cls-7" d="m415.74,304.84l.09-.1c2.33-2.49-.47-6.38-3.57-4.95l-.18.08c-3.41,1.57-6.16-3.14-3.11-5.34l1.08-.78c2.52-1.82.62-5.84-2.41-5.1l-1.3.32c-3.65.89-5.44-4.27-2.03-5.84l1.14-.52c2.83-1.3,1.71-5.59-1.41-5.44l-3.76.18c-3.44.16-4.24-4.81-.91-5.62l3.64-.88c3.03-.73,2.74-5.14-.37-5.59l-3.74-.54c-3.42-.5-3.27-5.51.17-5.67l3.76-.17c3.13-.14,3.67-4.51.7-5.54l-3.58-1.24c-3.28-1.13-2.19-6.02,1.24-5.51l3.73.55c3.11.46,4.47-3.71,1.73-5.29l-3.3-1.89c-3.02-1.73-1.02-6.3,2.26-5.16l3.58,1.24c2.98,1.04,5.11-2.78,2.71-4.84l-1-.86c-2.82-2.41.29-6.82,3.51-4.97l.03.02c2.92,1.68,6-1.92,3.9-4.55l-.08-.1c-2.32-2.89,1.55-6.64,4.36-4.22l.07.06c2.56,2.2,6.26-.77,4.67-3.74l-.04-.07c-1.74-3.27,2.76-6.23,5.07-3.34l.84,1.05c1.98,2.47,5.86.46,4.92-2.56l-.37-1.19c-1.11-3.55,3.88-5.63,5.62-2.34l.62,1.17c1.48,2.8,5.69,1.56,5.33-1.57l-.43-3.76c-.39-3.44,4.51-4.38,5.54-1.06l1.12,3.62c.93,3.02,5.31,2.6,5.55-.52l.29-3.76c.26-3.44,5.27-3.43,5.66.01l.42,3.76c.35,3.13,4.74,3.56,5.57.54l.99-3.62c.91-3.32,5.85-2.36,5.58,1.08l-.29,3.76c-.24,3.13,4,4.38,5.39,1.59l1.66-3.35c1.52-3.07,6.21-1.2,5.29,2.12l-1,3.62c-.83,3.01,3.12,5.04,5.01,2.58l.81-1.06c2.28-2.98,6.91-.09,5.24,3.27l-.12.23c-1.52,3.05,2.28,5.96,4.83,3.71l.1-.09c2.82-2.49,6.81,1.24,4.52,4.22l-.1.12c-2.08,2.71,1.09,6.3,4.03,4.58l.13-.08c3.25-1.9,6.45,2.53,3.62,5.02l-.07.06c-2.57,2.26-.15,6.4,3.08,5.27l.2-.07c3.55-1.23,5.82,3.72,2.58,5.61l-1.15.67c-2.69,1.56-1.17,5.74,1.92,5.29l3.72-.53c3.4-.49,4.67,4.4,1.43,5.52l-3.54,1.22c-2.94,1.02-2.24,5.39.89,5.54l3.76.18c3.45.17,3.78,5.19.37,5.67l-3.72.53c-3.09.44-3.22,4.85-.17,5.59l3.67.89c3.37.82,2.74,5.79-.7,5.62l-3.76-.19c-3.13-.16-4.09,4.13-1.22,5.44l3.45,1.57c3.16,1.44,1.61,6.18-1.76,5.36l-3.67-.9c-3.06-.75-4.81,3.26-2.23,5.09l1.14.8c3.03,2.14.34,6.81-3.03,5.27l-1.19-.55c-2.87-1.31-5.36,2.28-3.16,4.56l.92.94c2.58,2.66-.93,6.76-3.96,4.61l-.04-.03c-2.75-1.95-6.16,1.35-4.3,4.16l.05.07c2.04,3.09-2.17,6.46-4.74,3.8l-.06-.06c-2.34-2.43-6.31.18-5.01,3.3h0c1.43,3.42-3.33,5.96-5.37,2.86l-.72-1.1c-1.74-2.65-5.8-1.01-5.15,2.07l.78,3.71c.72,3.4-4.07,4.8-5.4,1.59l-1.46-3.51c-1.21-2.92-5.52-2.09-5.46,1.05l.07,3.77c.07,3.46-4.91,3.93-5.63.53l-.78-3.71c-.65-3.09-5.05-3.09-5.58-.01l-.64,3.71c-.59,3.4-5.59,2.91-5.64-.55l-.06-3.77c-.05-3.14-4.39-3.98-5.5-1.07l-1.33,3.5c-1.22,3.21-6.05,1.78-5.46-1.61l.65-3.7c.54-3.08-3.58-4.73-5.22-2.09l-.66,1.06c-1.99,3.19-6.88.76-5.53-2.75l.48-1.25c1.11-2.91-2.63-5.31-4.75-3.04l-.91.97c-2.56,2.75-6.89-.57-4.9-3.76l.11-.17c1.81-2.9-1.69-6.17-4.46-4.17l-.11.08c-3.05,2.2-6.66-1.9-4.09-4.64Z"/><rect class="cls-1" x="173.69" y="11.85" width="355.39" height="213.37"/><path class="cls-1" d="m.52,153.1l.51,77h171.66v-77L0,153.65"/><circle class="cls-7" cx="133.35" cy="261.55" r="63.68"/><circle class="cls-3" cx="465.4" cy="261.55" r="63.68"/><rect class="cls-1" x="122.69" y="27.19" width="50.01" height="126.02"/><polyline class="cls-1" points="86.01 27.19 41.5 153.6 122.69 153.21 122.69 27.19 86.01 27.19"/><rect class="cls-9" x="315.05" y="225.22" width="92.01" height="11.34"/><rect class="cls-13" x="269.71" y="225.22" width="45.34" height="20"/><rect class="cls-11" x="197.03" y="215.21" width="56.68" height="22"/><rect class="cls-10" x="203.7" y="45.19" width="100.01" height="59.34"/><rect class="cls-10" x="407.06" y="45.19" width="100.01" height="59.34"/><path class="cls-8" d="m64.68,231.17c0,24.67,30.05-30.17,66.69-30.17s66,54.84,66,30.17-29.7-44.67-66.34-44.67-66.34,20-66.34,44.67Z"/><path class="cls-8" d="m401.55,236.59c0,24.67,30.05-30.17,66.69-30.17s66,54.84,66,30.17-29.7-44.67-66.34-44.67-66.34,20-66.34,44.67Z"/><circle class="cls-5" cx="131.69" cy="261.22" r="42.67"/><circle class="cls-5" cx="463.79" cy="264.5" r="45.29"/><circle class="cls-6" cx="130.78" cy="262.16" r="23.6"/><circle class="cls-6" cx="464.13" cy="264.22" r="26.61"/><path class="cls-14" d="m89.49,127.1h61.54V58.86h-31.07c-23.67,0-30.46,10.45-30.46,34.12v34.12Z"/><path class="cls-1" d="m43.99,145.6h-11.93l-31.05,7.72.04.28h40.35l3.05-8.35-.46.35Z"/><polyline class="cls-12" points="173.69 11.85 219.89 .5 517.52 6.18 529.08 11.85"/><polygon class="cls-4" points=".8 229.46 66.5 221.6 64.68 230.55 1 230.55 .8 229.46"/><line class="cls-1" x1="4.21" y1="153.6" x2=".74" y2="153.6"/><circle class="cls-2" cx="131" cy="262.1" r="30.5"/><circle class="cls-2" cx="464.25" cy="265.85" r="33.25"/></g></svg>